<?xml version="1.0" encoding="UTF-8" standalone="no"?>
<!DOCTYPE svg PUBLIC "-//W3C//DTD SVG 1.1//EN"
 "http://www.w3.org/Graphics/SVG/1.1/DTD/svg11.dtd">
<!-- Generated by graphviz version 2.38.0 (20140413.2041)
 -->
<!-- Title: G Pages: 1 -->
<svg width="142pt" height="149pt"
 viewBox="0.00 0.00 141.81 149.00" xmlns="http://www.w3.org/2000/svg" xmlns:xlink="http://www.w3.org/1999/xlink">
<g id="graph0" class="graph" transform="scale(1 1) rotate(0) translate(4 145)">
<title>G</title>
<polygon fill="white" stroke="none" points="-4,4 -4,-145 137.814,-145 137.814,4 -4,4"/>
<g id="clust1" class="cluster"><title>cluster_Global</title>
<path fill="none" stroke="gray" d="M20,-8C20,-8 113.814,-8 113.814,-8 119.814,-8 125.814,-14 125.814,-20 125.814,-20 125.814,-121 125.814,-121 125.814,-127 119.814,-133 113.814,-133 113.814,-133 20,-133 20,-133 14,-133 8,-127 8,-121 8,-121 8,-20 8,-20 8,-14 14,-8 20,-8"/>
<text text-anchor="middle" x="66.907" y="-120.2" font-family="Times,serif" font-size="11.00" fill="gray">Global</text>
</g>
<!-- \\BeardedRoute -->
<g id="node1" class="node"><title>\\BeardedRoute</title>
<polygon fill="none" stroke="black" points="114.62,-106 19.1939,-106 19.1939,-70 114.62,-70 114.62,-106"/>
<text text-anchor="middle" x="66.907" y="-84.7" font-family="Courier,monospace" font-size="11.00">BeardedRoute</text>
</g>
<!-- \\BeardedRouter -->
<g id="node2" class="node"><title>\\BeardedRouter</title>
<polygon fill="none" stroke="black" points="117.721,-52 16.0928,-52 16.0928,-16 117.721,-16 117.721,-52"/>
<text text-anchor="middle" x="66.907" y="-30.7" font-family="Courier,monospace" font-size="11.00">BeardedRouter</text>
</g>
</g>
</svg>
